PathFileType	4	(X/Y/Z)	Patient4_TMGait_0pt5_01_left_14.trc.trc
DataRate	CameraRate	NumFrames	NumMarkers	Units	OrigDataRate	OrigDataStartFrame	OrigNumFrames
73.298429319372	73.298429319372	6	33	mm	73.298429319372	124	       141
Frame#	Time	L.ASIS			Sacral			L.Shoulder			Chest			R.Shoulder			Neck			R.ASIS			R.Thigh.Superior			R.Thigh.Lateral			R.Thigh.Inferior			R.Patella			L.Thigh.Superior			L.Thigh.Lateral			L.Thigh.Inferior			L.Patella			L.Shank.Superior			L.Shank.Lateral			L.Shank.Inferior			R.Shank.Superior			R.Shank.Lateral			R.Shank.Inferior			R.Heel			R.Midfoot.Superior			R.Midfoot.Lateral			R.Toe			L.Heel			L.Midfoot.Lateral			L.Midfoot.Superior			L.Toe			L.Elbow			L.Wrist			R.Elbow			R.Wrist			
		X1	Y1	Z1	X2	Y2	Z2	X3	Y3	Z3	X4	Y4	Z4	X5	Y5	Z5	X6	Y6	Z6	X7	Y7	Z7	X8	Y8	Z8	X9	Y9	Z9	X10	Y10	Z10	X11	Y11	Z11	X12	Y12	Z12	X13	Y13	Z13	X14	Y14	Z14	X15	Y15	Z15	X16	Y16	Z16	X17	Y17	Z17	X18	Y18	Z18	X19	Y19	Z19	X20	Y20	Z20	X21	Y21	Z21	X22	Y22	Z22	X23	Y23	Z23	X24	Y24	Z24	X25	Y25	Z25	X26	Y26	Z26	X27	Y27	Z27	X28	Y28	Z28	X29	Y29	Z29	X30	Y30	Z30	X31	Y31	Z31	X32	Y32	Z32	X33	Y33	Z33	

124	20.358071428571	805.335824469320	954.414053257083	344.603006873485	607.220166905982	998.878787462014	521.673652485831	757.614086780146	1434.310369229167	340.066994942706	878.218751604170	1358.565554166644	484.985423556562	814.712342092975	1424.173247301648	671.181723030893	775.717568876514	1488.589469072851	492.897691123874	841.114030024497	934.008748391155	617.128252538582	843.552298784349	722.689653682531	587.582755988170	744.874949929603	625.882620829159	650.846736869580	804.402869214680	562.566867333684	568.136203214749	785.600994670536	474.880176333904	570.980010656003	882.471750691978	766.135526641645	371.995068596138	824.432062044334	636.694188131007	303.917333273437	928.892444889626	577.785198740370	362.271330790970	952.661393920715	509.996447312822	361.932672470163	934.167648501852	437.044187651103	354.085690339262	860.950149751597	309.778123780979	307.074438018567	942.965354099028	208.045223971823	363.949951166595	746.018658625176	390.586264412562	577.904665594654	661.804127043243	297.480790358407	640.299476403728	686.290174601985	199.002084518126	574.702311794167	531.415928552398	43.833486755919	543.715387423580	703.701136592191	96.126301251006	579.688087480314	614.277752525835	36.304154404580	618.654852804804	822.665873550471	40.265130257937	608.954870598703	847.323209954130	39.420755743255	406.523170942744	920.713709217810	37.928420254722	325.601990909718	999.166791216405	105.980413116606	346.654534061019	1129.044237022067	62.851250207348	319.986179644772	628.656467015623	1103.246742422265	237.473208029213	613.190114892576	842.658285514028	238.907604804194	934.669259477703	1103.076100727858	774.892721466773	1167.632084313598	1158.252591754335	696.925433493619	
125	20.371714285714	806.543854247078	953.439417751571	342.807899132718	608.092817471660	997.502785841886	519.575424276123	755.822135958551	1433.032289577498	337.365323524549	877.143598142903	1358.375829054635	482.307643617040	813.321402723685	1423.891904568231	668.488399714720	773.819835733975	1487.784975027089	490.013189469258	842.201502142808	933.155841431235	615.195422666637	843.592533621429	721.360560989159	585.938110541758	744.057788271398	625.116143426941	649.335105992203	803.005386034113	561.258245523481	566.671594298887	783.260391568309	473.321827592558	569.419593561523	884.141270882482	764.783997884774	370.538975693236	824.966844333441	635.235204290670	303.551974578167	929.657969473132	576.518128348010	361.736886456548	952.251596706910	507.706819421587	362.108134539682	932.944474680498	434.286907770376	354.451875596815	857.633584665881	308.125457626743	307.470473585694	937.280370711266	205.085505836063	365.176970212514	742.729224074354	389.502666861302	576.695167536471	657.686683908258	297.434128099795	639.736180472845	680.753174906035	198.541067739625	574.204459639635	524.588036776073	44.135733093211	543.842820723455	696.951155733239	96.118535444262	579.673488190823	607.479321234573	36.341430419725	618.703429129462	815.876995807545	40.083677675243	608.997986188185	837.767822507133	38.820989785726	407.483435479638	911.285550999237	36.670635956516	326.562648943645	991.299624502892	102.632081857992	348.744704398297	1120.583160943688	56.786223272690	321.755399726298	629.618883430781	1100.672811833148	235.076256326388	617.704749430711	839.799718850594	235.837394375449	934.578897362448	1102.727472583798	771.528839766910	1166.520758369195	1158.580725795350	690.865006223870	
126	20.385357142857	807.649044128090	952.688936867782	340.867095297314	608.850030555338	996.374441955035	517.338118648951	754.211694648844	1431.868993759510	334.563743481120	876.227195903302	1358.253077413198	479.523388903402	812.176431819926	1423.791988221185	665.672421005399	772.174427977706	1487.125311647731	486.995615756199	843.187011059373	932.369644233447	613.105985873336	843.708745643650	720.155526896128	584.189327851197	743.421215101626	624.410674534388	647.676197093982	801.936091982326	560.043496909202	565.121170427488	781.356566934064	471.738722872266	567.850327101484	885.704990132504	763.787354056245	369.242945776619	825.890066105091	634.302154951195	302.926233094041	930.535119170579	575.649474184936	361.311482080340	951.964501646498	505.842573974775	362.256594824523	931.919175025659	431.981955151282	354.640094544351	854.814534206928	306.899246833007	307.401026636127	931.991645114702	202.648700027367	366.105181531708	739.733546106425	388.450568327189	575.436661939935	653.756843069917	297.535361431961	639.109021635142	675.357688175549	198.192096553624	573.719428525780	517.794773560857	44.676804491876	544.004682480917	690.310185301351	96.160263145587	579.691590171379	600.733580068222	36.475581608248	618.762378460054	809.149187037926	39.837430510336	609.051600985309	828.903111314145	38.330533985506	408.033062765495	902.587909246323	35.821948655758	327.164758307023	983.757437487919	100.114256502453	350.450778772344	1112.613958338069	52.238338839762	323.243745801710	631.144000897654	1098.035669016317	232.526487867495	623.116074488632	836.908066778254	232.387423015284	934.121900172720	1102.359536634052	768.339077802291	1165.430357466394	1157.728060232047	685.187054565201	
127	20.399000000000	808.603224507532	952.200826698672	338.756601765191	609.457352547275	995.536656883068	514.965085125286	752.806112381267	1430.875848249564	331.692710152516	875.474573555694	1358.209674985423	476.654095671186	811.309826307750	1423.893060383782	662.756982770471	770.811770841022	1486.644411864682	483.885718702022	844.018570380060	931.700409766326	610.862119469154	843.851194548687	719.132112021565	582.339261301181	742.946817522079	623.804413133827	645.878600944040	801.216040899832	558.965140118956	563.517099564489	779.954525200351	470.148439084285	566.337932677095	887.130900261761	763.216838092937	368.082040690357	827.146494823739	633.897637227614	302.039037448136	931.464746176125	575.169154606995	360.932128813305	951.766105034288	504.421432345548	362.311314665542	931.048379373050	430.153301382798	354.633873899381	852.445797852369	306.110475385007	306.905581163209	927.095821631889	200.768013416313	366.727974720727	737.068477064693	387.454587472407	574.168226880771	650.029290638324	297.824354936790	638.428844991380	670.128574035830	197.995267358325	573.269328095889	511.047396156200	45.534840460688	544.205024286774	683.803638147325	96.269641738426	579.754668143017	594.044727984612	36.750036626398	618.833854915096	802.483105220949	39.532260005036	609.114284633428	820.795284665365	37.971555184017	408.252549933412	894.650113369383	35.337838710489	327.457813205371	976.586498074250	98.409900292273	351.718595670765	1105.169602981246	49.172082015373	324.364754696214	633.223150428748	1095.422262901958	229.844205065033	629.400214722746	834.092503821085	228.595152034203	933.296017504696	1101.983439421495	765.310120787537	1164.358834184964	1155.639256121012	679.868807889290	
128	20.412642857143	809.389035895433	951.989193955520	336.459694247684	609.898031426068	995.007600565365	512.450791037541	751.618822045450	1430.094207023732	328.776253098657	874.879561857872	1358.253478264762	473.721617996565	810.722272485099	1424.196549252710	659.765269800480	769.737957177434	1486.361998441900	480.721400239958	844.660079462592	931.191901191497	608.472317526384	843.990167585747	718.337910914479	580.402168954951	742.630618237162	623.327729787632	643.959491247712	800.875461629970	558.055687791819	561.895512687504	779.127268042344	468.567503672755	564.955408133277	888.393816429895	763.077770350939	366.999678195197	828.611316186978	633.953160011185	300.909721756024	932.343126502937	574.999315670169	360.526537204855	951.569614263177	503.392704427044	362.230662423930	930.229700837108	428.760687943020	354.450553526351	850.393623728872	305.711798411547	306.076122654515	922.504184104009	199.405463653980	367.083149964588	734.783833119888	386.537133327168	572.935809277339	646.533084741335	298.339692968050	637.710249598717	665.101669951532	197.990980699341	572.877589402017	504.364853162846	46.799247989774	544.445526799048	677.459466568503	96.466047554106	579.875421406024	587.417351467476	37.218137228774	618.917888718321	795.872116086807	39.178597077746	609.182820427033	813.376576684504	37.742306137981	408.232209034260	887.379140954836	35.142217543361	327.509517799003	969.749619210868	97.413150869134	352.557611006377	1098.187413501284	47.392576852802	325.099227069074	635.828349482052	1092.914446028140	227.037872684804	636.547263072400	831.460609853754	224.496014425491	932.088484696323	1101.601731247054	762.417492525485	1163.264423622097	1152.254970510935	674.887668238885	
129	20.426285714286	810.017777595632	952.044940038647	333.972649966940	610.172162553367	994.780762754588	509.782062071586	750.655477376455	1429.548254471165	325.828070770136	874.426403984925	1358.389034521436	470.746864409469	810.379061448306	1424.686857433540	656.717980248019	768.936172605256	1486.282947639764	477.531308746203	845.093024978202	930.874922347158	605.949758578131	844.128748078134	717.805671834814	578.401147072003	742.495098676343	622.997861104876	641.940722111171	800.961742489259	557.334218637054	560.288879564608	778.958497425608	467.010528888460	563.769908714014	889.467330538121	763.304080316686	365.908316453579	830.089047190055	634.339559831377	299.574300322280	933.027542311121	575.013934068792	360.024371743848	951.245167558188	502.661450403558	362.005656646368	929.318578421015	427.720578579021	354.132532349818	848.471946341535	305.613419396451	305.037171745985	918.079355084402	198.473855385812	367.239910367352	732.948593295761	385.717128192181	571.785117980556	643.319320377556	299.118701314536	636.967959577260	660.328680189175	198.219439383981	572.565453604833	497.777153999433	48.571831295666	544.724696727386	671.309373879715	96.769538281319	580.065268113051	580.858756395290	37.944568238342	619.011669184655	789.300972091923	38.790429010691	609.252346055016	806.495347723612	37.623325594264	408.060871880451	880.609808094478	35.147115922054	327.394821511725	963.159523809616	96.965407581807	353.027863965777	1091.548306683106	46.610388092788	325.483131085385	638.917006331480	1090.582826580308	224.101291550806	644.562409626506	829.114385884020	220.120399587122	930.471931238253	1101.206430839427	759.625120010323	1162.062014552874	1147.513394781262	670.230330691767	
